<svg width="13" height="15" viewBox="0 0 13 15" fill="none" xmlns="http://www.w3.org/2000/svg">
<circle cx="6.5" cy="8.5" r="6" fill="white" stroke="#E0E0E0"/>
<path d="M5.89338 10.155V9.723C5.89338 9.483 5.94438 9.264 6.04638 9.066C6.14838 8.868 6.27138 8.703 6.41538 8.571C6.55938 8.439 6.70338 8.313 6.84738 8.193C6.99138 8.067 7.11438 7.929 7.21638 7.779C7.31838 7.623 7.36938 7.458 7.36938 7.284C7.36938 7.074 7.28538 6.897 7.11738 6.753C6.94938 6.609 6.74238 6.537 6.49638 6.537C6.16638 6.537 5.84838 6.663 5.54238 6.915L4.90338 6.132C5.35938 5.7 5.92338 5.484 6.59538 5.484C7.12938 5.484 7.59138 5.64 7.98138 5.952C8.37138 6.258 8.56638 6.666 8.56638 7.176C8.56638 7.452 8.51238 7.701 8.40438 7.923C8.29638 8.145 8.16438 8.328 8.00838 8.472C7.85238 8.616 7.69638 8.754 7.54038 8.886C7.39038 9.012 7.26138 9.153 7.15338 9.309C7.04538 9.465 6.99138 9.63 6.99138 9.804V10.155H5.89338ZM5.88438 12V10.929H6.99138V12H5.88438Z" fill="#CECECE"/>
</svg>
